<?xml version="1.0" encoding="utf-8"?>
<!-- Generator: Adobe Illustrator 22.1.0, SVG Export Plug-In . SVG Version: 6.00 Build 0)  -->
<svg version="1.1" id="图层_1" xmlns="http://www.w3.org/2000/svg" xmlns:xlink="http://www.w3.org/1999/xlink" x="0px" y="0px"
	 viewBox="0 0 1024 1024" style="enable-background:new 0 0 1024 1024;" xml:space="preserve">
<style type="text/css">
	.st0{fill:url(#SVGID_1_);}
	.st1{fill:url(#SVGID_2_);}
	.st2{fill:url(#SVGID_3_);}
	.st3{fill:url(#SVGID_4_);}
	.st4{fill:url(#SVGID_5_);}
	.st5{fill:#C6C6C6;}
	.st6{fill:url(#SVGID_6_);}
	.st7{fill:url(#SVGID_7_);}
	.st8{fill:url(#SVGID_8_);}
	.st9{fill:url(#SVGID_9_);}
</style>
<g>
	
		<linearGradient id="SVGID_1_" gradientUnits="userSpaceOnUse" x1="492.8161" y1="721.2851" x2="492.8161" y2="98.3597" gradientTransform="matrix(1.626 -0.2236 0 1 -308.4695 110.1677)">
		<stop  offset="0" style="stop-color:#D9D9D9"/>
		<stop  offset="0.5009" style="stop-color:#CECECE"/>
		<stop  offset="1" style="stop-color:#BFBFBF"/>
	</linearGradient>
	<polygon class="st0" points="743,686.9 242.7,755.7 242.7,132.7 743,63.9 	"/>
	<g>
		
			<linearGradient id="SVGID_2_" gradientUnits="userSpaceOnUse" x1="869.1815" y1="386.3937" x2="322.8182" y2="393.3526" gradientTransform="matrix(0.8578 1.273668e-02 0 1 39.0055 57.9996)">
			<stop  offset="0" style="stop-color:#F2F2F2"/>
			<stop  offset="0.6591" style="stop-color:#E8E8E8"/>
			<stop  offset="1" style="stop-color:#E0E0E0"/>
		</linearGradient>
		<path class="st1" d="M781.5,775.7c-5.6-8.5-462.6-11.7-462.2-10.1l0-627.9c0,0,387.9,19,461.8-2.4
			C772.5,172.2,775.7,765.2,781.5,775.7z"/>
	</g>
	<g>
		
			<linearGradient id="SVGID_3_" gradientUnits="userSpaceOnUse" x1="793.7927" y1="411.341" x2="146.8494" y2="554.4313" gradientTransform="matrix(0.778 0.2212 0 1 94.021 -85.7705)">
			<stop  offset="0" style="stop-color:#E8E8E8"/>
			<stop  offset="1" style="stop-color:#E3E3E3"/>
		</linearGradient>
		<path class="st2" d="M673.3,864.7l-421.6-99.1V137.6c0,0,350.3,94.6,415.2,90.8C659.3,263.4,673.3,864.7,673.3,864.7z"/>
	</g>
	<g>
		
			<linearGradient id="SVGID_4_" gradientUnits="userSpaceOnUse" x1="711.6782" y1="464.8355" x2="69.8961" y2="687.0526" gradientTransform="matrix(0.69 0.3462 0 1 154.9225 -173.0384)">
			<stop  offset="0" style="stop-color:#EDEDED"/>
			<stop  offset="0.6549" style="stop-color:#E3E3E3"/>
			<stop  offset="1" style="stop-color:#DBDBDB"/>
		</linearGradient>
		<path class="st3" d="M596.9,938.8L251.7,765.6V137.6c0,0,298.7,109.4,345.2,173.2C614.4,341.5,596.9,938.8,596.9,938.8z"/>
	</g>
	
		<linearGradient id="SVGID_5_" gradientUnits="userSpaceOnUse" x1="396.5417" y1="921.3611" x2="396.5417" y2="298.4358" gradientTransform="matrix(1 0.6626 0 1 0 -326.4969)">
		<stop  offset="0" style="stop-color:#D9D9D9"/>
		<stop  offset="0.5009" style="stop-color:#CECECE"/>
		<stop  offset="1" style="stop-color:#BFBFBF"/>
	</linearGradient>
	<polygon class="st4" points="550.4,959.6 242.7,755.7 242.7,132.7 550.4,336.6 	"/>
	<g>
		<path class="st5" d="M415.8,573.2l-11.8-24.7v31.8l-25.8-17.3v-31.8l-11.8,8.8l-0.1,0.1c-3.2,2.4-3.2,9.7,0,16.4l15.8,32.9
			c1.7,3.6,4.5,5.5,6.3,4.2l2.8-2.1l2.8,5.8c1.7,3.6,4.5,5.5,6.3,4.2l15.8-11.8c3.2-2.4,3.2-9.7,0-16.4L415.8,573.2z"/>
		<path class="st5" d="M364.4,536l11.8-8.8l-22.5-15.1v-36.5l22.5,15.1l-11.8-24.7l-0.1-0.2c-3.2-6.7-8.4-10.2-11.6-7.8l-15.8,11.8
			c-1.7,1.3-1.7,5.3,0,8.9l2.8,5.8l-2.8,2.1c-1.7,1.3-1.7,5.3,0,8.9l15.8,32.9C355.9,535,361.1,538.5,364.4,536L364.4,536z"/>
		<path class="st5" d="M366.3,464.6l11.8,24.7v-31.8l25.8,17.3v31.8l11.8-8.8l0.1-0.1c3.2-2.4,3.2-9.7,0-16.4l-15.8-32.9
			c-1.7-3.6-4.5-5.5-6.3-4.2l-2.8,2.1l-2.8-5.8c-1.7-3.6-4.5-5.5-6.3-4.2L366.3,448c-3.2,2.4-3.2,9.7,0,16.4L366.3,464.6z"/>
		<path class="st5" d="M442.5,553.3l2.8-2.1c1.7-1.3,1.7-5.3,0-8.9l-15.8-32.9c-3.2-6.7-8.4-10.2-11.6-7.8l-0.1,0.1l-11.8,8.8
			l22.5,15.1v36.5l-22.5-15.1l11.8,24.7l0.1,0.2c3.2,6.7,8.4,10.2,11.6,7.8l15.8-11.8c1.7-1.3,1.7-5.3,0-8.9L442.5,553.3z"/>
	</g>
	<g>
		<g>
			
				<linearGradient id="SVGID_6_" gradientUnits="userSpaceOnUse" x1="517.5888" y1="296.6165" x2="594.5928" y2="296.6165" gradientTransform="matrix(0.7067 0.4735 0 1 -5.4104 8.7331)">
				<stop  offset="0" style="stop-color:#F2F2F2"/>
				<stop  offset="1" style="stop-color:#EBEBEB"/>
			</linearGradient>
			<path class="st6" d="M412.3,573.2l-11.8-24.7v31.8l-25.8-17.3v-31.8l-11.8,8.8l-0.1,0.1c-3.2,2.4-3.2,9.7,0,16.4l15.8,32.9
				c1.7,3.6,4.5,5.5,6.3,4.2l2.8-2.1l2.8,5.8c1.7,3.6,4.5,5.5,6.3,4.2l15.8-11.8c3.2-2.4,3.2-9.7,0-16.4L412.3,573.2z"/>
		</g>
		<g>
			
				<linearGradient id="SVGID_7_" gradientUnits="userSpaceOnUse" x1="477.6254" y1="246.8823" x2="535.0878" y2="246.8823" gradientTransform="matrix(0.7067 0.4735 0 1 -5.4104 8.7331)">
				<stop  offset="0" style="stop-color:#F2F2F2"/>
				<stop  offset="1" style="stop-color:#EBEBEB"/>
			</linearGradient>
			<path class="st7" d="M360.9,536l11.8-8.8l-22.5-15.1v-36.5l22.5,15.1l-11.8-24.7l-0.1-0.2c-3.2-6.7-8.4-10.2-11.6-7.8l-15.8,11.8
				c-1.7,1.3-1.7,5.3,0,8.9l2.8,5.8l-2.8,2.1c-1.7,1.3-1.7,5.3,0,8.9l15.8,32.9C352.4,535,357.6,538.5,360.9,536L360.9,536z"/>
		</g>
		<g>
			
				<linearGradient id="SVGID_8_" gradientUnits="userSpaceOnUse" x1="517.5888" y1="197.148" x2="594.5928" y2="197.148" gradientTransform="matrix(0.7067 0.4735 0 1 -5.4104 8.7331)">
				<stop  offset="0" style="stop-color:#F2F2F2"/>
				<stop  offset="1" style="stop-color:#EBEBEB"/>
			</linearGradient>
			<path class="st8" d="M362.8,464.6l11.8,24.7v-31.8l25.8,17.3v31.8l11.8-8.8l0.1-0.1c3.2-2.4,3.2-9.7,0-16.4l-15.8-32.9
				c-1.7-3.6-4.5-5.5-6.3-4.2l-2.8,2.1l-2.8-5.8c-1.7-3.6-4.5-5.5-6.3-4.2L362.7,448c-3.2,2.4-3.2,9.7,0,16.4L362.8,464.6z"/>
		</g>
		<g>
			
				<linearGradient id="SVGID_9_" gradientUnits="userSpaceOnUse" x1="577.0939" y1="246.8823" x2="634.5562" y2="246.8823" gradientTransform="matrix(0.7067 0.4735 0 1 -5.4104 8.7331)">
				<stop  offset="0" style="stop-color:#F2F2F2"/>
				<stop  offset="1" style="stop-color:#EBEBEB"/>
			</linearGradient>
			<path class="st9" d="M438.9,553.3l2.8-2.1c1.7-1.3,1.7-5.3,0-8.9l-15.8-32.9c-3.2-6.7-8.4-10.2-11.6-7.8l-0.1,0.1l-11.8,8.8
				l22.5,15.1v36.5l-22.5-15.1l11.8,24.7l0.1,0.2c3.2,6.7,8.4,10.2,11.6,7.8l15.8-11.8c1.7-1.3,1.7-5.3,0-8.9L438.9,553.3z"/>
		</g>
	</g>
</g>
</svg>
