<?xml version="1.0" encoding="utf-8"?>
<!-- Generator: Adobe Illustrator 22.1.0, SVG Export Plug-In . SVG Version: 6.00 Build 0)  -->
<svg version="1.1" id="图层_1" xmlns="http://www.w3.org/2000/svg" xmlns:xlink="http://www.w3.org/1999/xlink" x="0px" y="0px"
	 viewBox="0 0 1024 1024" style="enable-background:new 0 0 1024 1024;" xml:space="preserve">
<style type="text/css">
	.st0{fill:url(#SVGID_1_);}
	.st1{fill:url(#SVGID_2_);}
	.st2{fill:url(#SVGID_3_);}
	.st3{fill:url(#SVGID_4_);}
	.st4{fill:url(#SVGID_5_);}
	.st5{fill:url(#SVGID_6_);}
	.st6{fill:url(#SVGID_7_);}
	.st7{fill:url(#SVGID_8_);}
	.st8{fill:url(#SVGID_9_);}
</style>
<g>
	<g>
		<linearGradient id="SVGID_1_" gradientUnits="userSpaceOnUse" x1="149.7149" y1="371.0886" x2="491.9436" y2="371.0886">
			<stop  offset="0" style="stop-color:#EDEDED"/>
			<stop  offset="0.6549" style="stop-color:#E3E3E3"/>
			<stop  offset="1" style="stop-color:#DBDBDB"/>
		</linearGradient>
		<polygon class="st0" points="491.9,428.1 149.7,389 491.9,314.1 		"/>
	</g>
	<g>
		<linearGradient id="SVGID_2_" gradientUnits="userSpaceOnUse" x1="487.5764" y1="375.4014" x2="874.4627" y2="375.4014">
			<stop  offset="0" style="stop-color:#E3E3E3"/>
			<stop  offset="1" style="stop-color:#DBDBDB"/>
		</linearGradient>
		<polygon class="st1" points="532.2,436.7 487.6,432.2 487.6,314.1 874.5,353.5 		"/>
	</g>
	<g>
		
			<linearGradient id="SVGID_3_" gradientUnits="userSpaceOnUse" x1="-227.7683" y1="459.4621" x2="-61.54" y2="459.4621" gradientTransform="matrix(0.9783 0.2072 -0.2072 0.9783 584.9418 -197.2817)">
			<stop  offset="0" style="stop-color:#F4F4F4"/>
			<stop  offset="1" style="stop-color:#F2F2F2"/>
		</linearGradient>
		<path class="st2" d="M278.4,150.5c0,0-13.6,90.3,51.8,120.7s93-1.9,93-1.9s-68.9-40-69.3-86.1
			C329.7,178.1,294.8,165.2,278.4,150.5z"/>
	</g>
	<g>
		
			<linearGradient id="SVGID_4_" gradientUnits="userSpaceOnUse" x1="-206.413" y1="493.015" x2="-98.1325" y2="493.015" gradientTransform="matrix(0.9783 0.2072 -0.2072 0.9783 584.9418 -197.2817)">
			<stop  offset="0" style="stop-color:#EDEDED"/>
			<stop  offset="0.6549" style="stop-color:#E3E3E3"/>
			<stop  offset="1" style="stop-color:#DBDBDB"/>
		</linearGradient>
		<path class="st3" d="M285.4,220.6c7.3,20,20.6,39.4,44.8,50.6c21.4,9.9,38.8,13.2,52.4,13c-21.5-9.4-32-13.2-45.3-33.5
			C313.1,245.6,309.8,243.2,285.4,220.6z"/>
	</g>
	<g>
		<linearGradient id="SVGID_5_" gradientUnits="userSpaceOnUse" x1="654.4138" y1="309.1197" x2="703.8052" y2="319.5812">
			<stop  offset="0" style="stop-color:#F4F4F4"/>
			<stop  offset="1" style="stop-color:#F2F2F2"/>
		</linearGradient>
		<path class="st4" d="M669.3,277.4c0,0,21.9-5,46.3-25.4c-2.7,40.6-21.5,126.3-75.5,124.3C656.9,357.8,676.1,314.7,669.3,277.4z"/>
	</g>
	<g>
		<linearGradient id="SVGID_6_" gradientUnits="userSpaceOnUse" x1="532.2305" y1="612.1485" x2="874.4627" y2="612.1485">
			<stop  offset="0" style="stop-color:#E3E3E3"/>
			<stop  offset="1" style="stop-color:#DBDBDB"/>
		</linearGradient>
		<polygon class="st5" points="874.5,769.2 532.2,870.8 532.2,428.5 874.5,353.5 		"/>
	</g>
	<g>
		<linearGradient id="SVGID_7_" gradientUnits="userSpaceOnUse" x1="343.0218" y1="870.7784" x2="343.0218" y2="389.024">
			<stop  offset="0" style="stop-color:#EDEDED"/>
			<stop  offset="0.6549" style="stop-color:#E3E3E3"/>
			<stop  offset="1" style="stop-color:#DBDBDB"/>
		</linearGradient>
		<polygon class="st6" points="149.7,792.9 536.3,870.8 536.3,428.5 149.7,389 		"/>
	</g>
	<g>
		<linearGradient id="SVGID_8_" gradientUnits="userSpaceOnUse" x1="536.3287" y1="502.6262" x2="63.8228" y2="502.6262">
			<stop  offset="0" style="stop-color:#F4F4F4"/>
			<stop  offset="1" style="stop-color:#F0F0F0"/>
		</linearGradient>
		<polygon class="st7" points="447.9,616.2 63.8,550.1 149.7,389 536.3,428.5 		"/>
	</g>
	<g>
		<linearGradient id="SVGID_9_" gradientUnits="userSpaceOnUse" x1="960.3547" y1="484.8735" x2="532.2305" y2="484.8735">
			<stop  offset="0" style="stop-color:#F4F4F4"/>
			<stop  offset="1" style="stop-color:#F0F0F0"/>
		</linearGradient>
		<polygon class="st8" points="620.6,616.2 960.4,514.6 874.5,353.5 532.2,428.5 		"/>
	</g>
</g>
</svg>
