<?xml version="1.0" encoding="utf-8"?>
<!-- Generator: Adobe Illustrator 22.1.0, SVG Export Plug-In . SVG Version: 6.00 Build 0)  -->
<svg version="1.1" id="图层_1" xmlns="http://www.w3.org/2000/svg" xmlns:xlink="http://www.w3.org/1999/xlink" x="0px" y="0px"
	 viewBox="0 0 1024 1024" style="enable-background:new 0 0 1024 1024;" xml:space="preserve">
<style type="text/css">
	.st0{fill:#C6C6C6;}
	.st1{fill:url(#SVGID_1_);}
	.st2{fill:url(#SVGID_2_);}
	.st3{fill:url(#SVGID_3_);}
	.st4{fill:url(#SVGID_4_);}
	.st5{fill:url(#SVGID_5_);}
	.st6{fill:url(#SVGID_6_);}
	.st7{fill:url(#SVGID_7_);}
	.st8{fill:url(#SVGID_8_);}
	.st9{fill:url(#SVGID_9_);}
	.st10{fill:url(#SVGID_10_);}
	.st11{fill:url(#SVGID_11_);}
	.st12{fill:url(#SVGID_12_);}
	.st13{fill:url(#SVGID_13_);}
	.st14{fill:url(#SVGID_14_);}
</style>
<g>
	<g>
		<path class="st0" d="M784.4,320.7l-46.6-25.3c32.4,17.6,62.2,39.8,88.7,65.8l46.6,25.3C846.7,360.5,816.9,338.4,784.4,320.7z"/>
		<polygon class="st0" points="63.3,376.6 144.2,452.7 190.8,478 109.9,401.9 		"/>
		<polygon class="st0" points="199.2,555.9 280.1,632 326.6,657.4 245.7,581.3 		"/>
	</g>
	<linearGradient id="SVGID_1_" gradientUnits="userSpaceOnUse" x1="399.164" y1="794.9253" x2="575.1516" y2="794.9253">
		<stop  offset="0" style="stop-color:#C7C7C7"/>
		<stop  offset="0.6591" style="stop-color:#BDBDBD"/>
		<stop  offset="1" style="stop-color:#B5B5B5"/>
	</linearGradient>
	<path class="st1" d="M528.6,703.3c-0.8-0.5-1.7-0.9-2.6-1.3c-0.3-0.2-0.7-0.3-1-0.4c-1.4-0.7-2.8-1.3-4.3-1.8
		c-0.6-0.2-1.1-0.5-1.7-0.7c-2-0.7-4.1-1.4-6.2-1.9c0,0-0.1,0-0.1,0c-0.3-0.1-0.6-0.1-0.8-0.2c-1.8-0.4-3.6-0.8-5.4-1.1
		c-0.7-0.1-1.4-0.2-2.2-0.3c-1.5-0.2-3-0.4-4.5-0.5c-0.8-0.1-1.6-0.1-2.4-0.1c-1.6-0.1-3.1-0.1-4.7,0c-0.7,0-1.4,0-2.2,0.1
		c-2.3,0.1-4.6,0.3-7,0.6c-2.6,0.4-5.2,0.9-7.7,1.5c-0.7,0.2-1.5,0.4-2.2,0.6c-1.9,0.5-3.8,1.1-5.7,1.7c-0.7,0.2-1.3,0.4-2,0.7
		c-2.4,0.9-4.7,1.8-7,2.9c-0.1,0-0.2,0.1-0.2,0.1c-0.6,0.3-1.3,0.7-1.9,1c-1.9,0.9-3.7,1.9-5.5,2.9c-0.9,0.5-1.8,1.1-2.6,1.7
		c-1.1,0.7-2.3,1.4-3.4,2.2c-0.4,0.3-0.8,0.6-1.1,0.8c-0.6,0.4-1.2,0.9-1.8,1.4c-1.6,1.2-3.2,2.5-4.8,3.8c-0.5,0.5-1.1,0.9-1.6,1.4
		c-0.3,0.2-0.6,0.5-0.8,0.7c-0.5,0.4-0.9,0.9-1.3,1.3c-2.1,1.9-4.1,4-6,6.1c-0.4,0.4-0.9,0.8-1.3,1.3c-0.3,0.4-0.6,0.8-0.9,1.2
		c-2.1,2.4-4,4.9-5.9,7.5c-0.2,0.3-0.5,0.6-0.8,1c-0.1,0.1-0.1,0.2-0.2,0.3c-0.3,0.4-0.5,0.7-0.7,1.1c-1.3,1.9-2.5,3.8-3.7,5.8
		c-0.4,0.7-0.8,1.4-1.2,2c-0.3,0.6-0.7,1.2-1.1,1.8c-0.6,1.1-1.1,2.2-1.6,3.3c-0.4,0.9-0.9,1.8-1.3,2.7c-0.9,2-1.8,4.1-2.6,6.2
		c-0.2,0.6-0.5,1.1-0.7,1.7c0,0.1-0.1,0.2-0.1,0.3c-0.6,1.5-1,3.1-1.5,4.7c-0.4,1.3-0.9,2.5-1.2,3.8c-0.5,1.8-0.8,3.5-1.2,5.3
		c-0.3,1.2-0.6,2.4-0.8,3.6c-0.4,2-0.6,4-0.9,6.1c-0.1,1-0.3,2-0.4,3.1c-0.3,3.1-0.4,6.2-0.4,9.3c-0.1,32.3,15.5,58.6,39.1,71.4
		l46.6,25.3c-23.5-12.8-39.1-39-39.1-71.4c0-3.1,0.2-6.2,0.4-9.3c0.1-1,0.3-2,0.4-3c0.3-2.1,0.5-4.1,0.9-6.1
		c0.2-1.2,0.6-2.4,0.8-3.6c0.4-1.8,0.8-3.6,1.3-5.4c0.3-1.3,0.8-2.5,1.2-3.7c0.5-1.7,1-3.4,1.6-5c0.2-0.6,0.5-1.1,0.7-1.7
		c0.8-2.1,1.7-4.2,2.6-6.2c0.4-0.9,0.9-1.8,1.3-2.7c0.9-1.7,1.7-3.5,2.7-5.1c0.4-0.7,0.8-1.4,1.2-2c1.2-2,2.4-3.9,3.7-5.8
		c0.2-0.4,0.5-0.7,0.7-1.1c0.3-0.5,0.7-0.9,1-1.3c1.9-2.6,3.8-5.1,5.9-7.5c0.7-0.8,1.4-1.6,2.2-2.4c1.9-2.1,3.9-4.1,6-6.1
		c0.7-0.7,1.4-1.4,2.2-2c0.5-0.5,1.1-0.9,1.6-1.4c1.6-1.3,3.1-2.6,4.8-3.8c0.6-0.5,1.2-0.9,1.8-1.4c1.5-1.1,3-2,4.6-3
		c0.9-0.6,1.7-1.1,2.6-1.7c1.8-1.1,3.6-2,5.5-2.9c0.6-0.3,1.3-0.7,1.9-1c2.4-1.1,4.8-2.1,7.2-3c0.7-0.2,1.3-0.5,2-0.7
		c1.9-0.6,3.8-1.2,5.7-1.7c0.7-0.2,1.5-0.4,2.2-0.6c2.6-0.6,5.1-1.1,7.7-1.5c2.3-0.3,4.7-0.5,7-0.6c0.7,0,1.4,0,2.2-0.1
		c1.6,0,3.2,0,4.7,0c0.8,0,1.6,0.1,2.4,0.1c1.5,0.1,3,0.3,4.5,0.5c0.7,0.1,1.4,0.2,2.2,0.3c1.8,0.3,3.6,0.7,5.4,1.1
		c0.3,0.1,0.6,0.1,1,0.2c2.1,0.5,4.2,1.2,6.2,1.9c0.6,0.2,1.2,0.5,1.7,0.7c1.4,0.6,2.9,1.2,4.3,1.8c1.2,0.6,2.4,1.1,3.5,1.7
		L528.6,703.3z"/>
	<g>
		<g>
			<linearGradient id="SVGID_2_" gradientUnits="userSpaceOnUse" x1="445.7374" y1="811.8223" x2="614.2433" y2="811.8223">
				<stop  offset="0" style="stop-color:#EDEDED"/>
				<stop  offset="0.6549" style="stop-color:#E3E3E3"/>
				<stop  offset="1" style="stop-color:#DBDBDB"/>
			</linearGradient>
			<path class="st2" d="M530.2,720.9c46.5-6.5,84.2,28.9,84.1,79.1c-0.1,50.2-37.9,96.2-84.4,102.8c-46.5,6.5-84.2-28.9-84.1-79.1
				C445.8,773.4,483.6,727.4,530.2,720.9z"/>
		</g>
	</g>
	<g>
		<g>
			<linearGradient id="SVGID_3_" gradientUnits="userSpaceOnUse" x1="109.9067" y1="312.8839" x2="954.39" y2="312.8839">
				<stop  offset="0" style="stop-color:#EDEDED"/>
				<stop  offset="0.6549" style="stop-color:#E3E3E3"/>
				<stop  offset="1" style="stop-color:#DBDBDB"/>
			</linearGradient>
			<path class="st3" d="M530.5,153.2c166.3-23.4,316.6,30,423.9,134.6l-81.2,98.8C786.6,301.5,664.9,258,530.3,276.9
				C397.7,295.6,277.4,371.3,190.8,478l-80.9-76.1C217.4,269.8,366.3,176.2,530.5,153.2z"/>
		</g>
	</g>
	<g>
		<g>
			<linearGradient id="SVGID_4_" gradientUnits="userSpaceOnUse" x1="612.6166" y1="626.3707" x2="889.7184" y2="626.3707">
				<stop  offset="0" style="stop-color:#C7C7C7"/>
				<stop  offset="0.6591" style="stop-color:#BDBDBD"/>
				<stop  offset="1" style="stop-color:#B5B5B5"/>
			</linearGradient>
			<path class="st4" d="M659.6,656.7c0.1-1.9,0.2-3.7,0.4-5.6c0.1-1.1,0.3-2.2,0.4-3.3c0.2-1.6,0.3-3.3,0.6-4.9
				c0.2-1.2,0.4-2.3,0.6-3.5c0.2-1.5,0.5-3.1,0.8-4.6c0.2-1.2,0.5-2.4,0.7-3.6c0.3-1.5,0.6-3,0.9-4.5c0.3-1.2,0.6-2.4,0.9-3.6
				c0.4-1.4,0.7-2.9,1.1-4.3c0.3-1.2,0.7-2.4,1.1-3.6c0.4-1.4,0.8-2.8,1.3-4.2c0.4-1.2,0.8-2.4,1.2-3.6c0.5-1.3,0.9-2.6,1.4-3.9
				c1.4-3.8,3-7.6,4.6-11.3c0.3-0.7,0.6-1.4,1-2.2c1.7-3.6,3.4-7.2,5.3-10.8c0.4-0.7,0.8-1.4,1.2-2.1c1.3-2.5,2.7-4.9,4.2-7.3
				c0.4-0.7,0.9-1.4,1.3-2.2c1.8-2.9,3.7-5.8,5.6-8.6c0.4-0.6,0.8-1.1,1.2-1.6c1.5-2.1,3.1-4.3,4.7-6.3c0.6-0.8,1.2-1.6,1.8-2.3
				c1.7-2.1,3.3-4.1,5.1-6.1c0.4-0.5,0.8-1,1.3-1.5c2.2-2.4,4.4-4.8,6.6-7.1c0.6-0.6,1.2-1.1,1.7-1.7c1.8-1.8,3.6-3.5,5.4-5.2
				c0.7-0.6,1.4-1.3,2.1-1.9c2.6-2.3,5.2-4.5,7.8-6.6c0.2-0.2,0.5-0.3,0.7-0.5c2.5-2,5-3.8,7.6-5.6c0.7-0.5,1.3-0.9,2-1.4
				c3.4-2.3,6.8-4.5,10.4-6.6c0.6-0.3,1.1-0.6,1.7-1c3.7-2.1,7.4-4,11.1-5.8c0.4-0.2,0.8-0.4,1.3-0.6c2.7-1.2,5.4-2.4,8.2-3.5
				c0.8-0.3,1.6-0.6,2.4-1c3.2-1.2,6.4-2.3,9.6-3.3c0.3-0.1,0.5-0.1,0.8-0.2c3-0.9,6.1-1.7,9.1-2.4c0.9-0.2,1.7-0.4,2.6-0.6
				c3.3-0.7,6.7-1.3,10.1-1.8c3.3-0.5,6.6-0.8,9.8-1c0.7,0,1.3-0.1,2-0.1c3.1-0.2,6.3-0.3,9.3-0.2c0.5,0,1.1,0,1.6,0
				c2.9,0.1,5.7,0.2,8.5,0.5c0.4,0,0.8,0.1,1.2,0.1c3,0.3,6,0.7,9,1.2c0.6,0.1,1.3,0.2,1.9,0.3c2.9,0.5,5.9,1.2,8.7,1.9
				c0.3,0.1,0.6,0.2,0.8,0.2c2.7,0.7,5.3,1.5,7.9,2.4c0.6,0.2,1.2,0.4,1.8,0.6c2.7,1,5.4,2,8.1,3.2c0.5,0.2,1,0.5,1.5,0.7
				c2.7,1.2,5.3,2.5,7.9,3.9l-46.6-25.3c-1.5-0.8-3-1.6-4.6-2.4c-1.1-0.5-2.2-1-3.3-1.5c-0.5-0.2-1-0.5-1.5-0.7
				c-2.6-1.2-5.3-2.2-8.1-3.2c-0.6-0.2-1.2-0.4-1.8-0.6c-2.6-0.9-5.2-1.7-7.9-2.4c-0.3-0.1-0.6-0.2-0.8-0.2c-0.1,0-0.2-0.1-0.3-0.1
				c-2.8-0.7-5.6-1.3-8.4-1.8c-0.6-0.1-1.3-0.2-1.9-0.3c-3-0.5-5.9-0.9-9-1.2c-0.4,0-0.8-0.1-1.2-0.1c-2.8-0.3-5.7-0.4-8.5-0.5
				c-0.5,0-1.1,0-1.6,0c-3.1,0-6.2,0-9.3,0.2c-0.7,0-1.3,0.1-2,0.1c-3.2,0.2-6.5,0.5-9.8,1c-3.4,0.5-6.8,1.1-10.1,1.8
				c-0.9,0.2-1.7,0.4-2.6,0.6c-3.1,0.7-6.1,1.5-9.1,2.4c-0.3,0.1-0.5,0.1-0.8,0.2c-3.2,1-6.4,2.1-9.6,3.3c-0.8,0.3-1.6,0.6-2.4,1
				c-2.8,1.1-5.5,2.3-8.2,3.5c-0.3,0.2-0.7,0.3-1,0.4c-0.1,0-0.2,0.1-0.3,0.1c-3.8,1.8-7.5,3.8-11.2,5.8c-0.6,0.3-1.1,0.6-1.7,1
				c-3.5,2.1-7,4.3-10.4,6.6c-0.3,0.2-0.6,0.4-0.9,0.6c-0.4,0.3-0.7,0.6-1.1,0.8c-2.6,1.8-5.1,3.7-7.6,5.6c-0.2,0.2-0.5,0.3-0.7,0.5
				c-2.7,2.1-5.3,4.3-7.8,6.6c-0.3,0.3-0.6,0.5-0.9,0.8c-0.4,0.4-0.8,0.8-1.2,1.1c-1.8,1.7-3.7,3.4-5.4,5.2
				c-0.6,0.6-1.2,1.1-1.7,1.7c-2.3,2.3-4.5,4.7-6.6,7.1c-0.1,0.1-0.2,0.2-0.3,0.3c-0.3,0.4-0.6,0.8-1,1.2c-1.7,2-3.4,4-5.1,6.1
				c-0.6,0.8-1.2,1.5-1.8,2.3c-1.6,2.1-3.2,4.2-4.7,6.3c-0.3,0.4-0.6,0.8-0.9,1.2c-0.1,0.1-0.2,0.3-0.3,0.4c-2,2.8-3.8,5.7-5.6,8.6
				c-0.4,0.7-0.9,1.4-1.3,2.2c-1.4,2.4-2.8,4.8-4.2,7.3c-0.3,0.5-0.6,0.9-0.8,1.4c-0.1,0.2-0.2,0.5-0.3,0.7
				c-1.9,3.5-3.6,7.1-5.3,10.8c-0.3,0.7-0.6,1.4-1,2.2c-1.6,3.7-3.2,7.5-4.6,11.3c0,0.1-0.1,0.2-0.1,0.3c-0.4,1.2-0.8,2.4-1.2,3.6
				c-0.4,1.2-0.8,2.4-1.2,3.6c-0.4,1.4-0.8,2.8-1.3,4.2c-0.4,1.2-0.7,2.4-1.1,3.6c-0.4,1.4-0.7,2.9-1.1,4.3
				c-0.3,1.2-0.6,2.4-0.9,3.6c-0.3,1.5-0.6,3-0.9,4.5c-0.2,1.2-0.5,2.4-0.7,3.6c-0.3,1.5-0.5,3.1-0.8,4.6c-0.2,1.2-0.4,2.3-0.6,3.5
				c-0.2,1.6-0.4,3.3-0.6,4.9c-0.1,1.1-0.3,2.2-0.4,3.3c-0.2,1.9-0.3,3.7-0.4,5.6c-0.1,0.9-0.1,1.8-0.2,2.7
				c-0.1,2.8-0.2,5.5-0.2,8.3c-0.1,36,10.8,67.7,29.1,92.1c11,14.6,24.8,26.5,40.5,35.1l46.6,25.3c-41.9-22.8-69.7-69.5-69.6-127.1
				c0-2.8,0.1-5.5,0.2-8.3C659.4,658.5,659.5,657.6,659.6,656.7z"/>
		</g>
		<g>
			<g>
				<linearGradient id="SVGID_5_" gradientUnits="userSpaceOnUse" x1="659.1898" y1="646.6109" x2="959.3333" y2="646.6109">
					<stop  offset="0" style="stop-color:#D9D9D9"/>
					<stop  offset="0.5009" style="stop-color:#CECECE"/>
					<stop  offset="1" style="stop-color:#BFBFBF"/>
				</linearGradient>
				<path class="st5" d="M809.6,484.6C892.4,473,959.5,536,959.3,625.5C959.2,715,891.8,797,809,808.6
					c-82.9,11.7-150-51.5-149.8-140.9C659.4,578.2,726.7,496.3,809.6,484.6z"/>
			</g>
		</g>
	</g>
	<g>
		<g>
			<linearGradient id="SVGID_6_" gradientUnits="userSpaceOnUse" x1="63.3333" y1="262.1802" x2="845.7496" y2="262.1802">
				<stop  offset="0" style="stop-color:#C7C7C7"/>
				<stop  offset="0.6591" style="stop-color:#BDBDBD"/>
				<stop  offset="1" style="stop-color:#B5B5B5"/>
			</linearGradient>
			<path class="st6" d="M799.2,182.1c-5.8-3.1-11.6-6.2-17.5-9.1c-0.1,0-0.1-0.1-0.2-0.1c-5.1-2.5-10.3-4.9-15.4-7.2
				c-1.2-0.5-2.4-1.1-3.6-1.6c-5.2-2.3-10.5-4.5-15.8-6.6c-0.7-0.3-1.4-0.5-2.1-0.8c-4.9-1.9-9.8-3.7-14.7-5.5
				c-1.1-0.4-2.2-0.8-3.3-1.2c-5.4-1.9-10.8-3.7-16.3-5.4c-1.1-0.3-2.2-0.7-3.4-1c-5.1-1.5-10.2-3-15.4-4.4
				c-0.7-0.2-1.4-0.4-2.2-0.6c-0.3-0.1-0.6-0.2-0.9-0.3c-5.3-1.4-10.7-2.6-16-3.8c-1.2-0.3-2.5-0.6-3.8-0.8
				c-5.7-1.2-11.5-2.4-17.3-3.4c-0.6-0.1-1.2-0.2-1.8-0.3c-5.5-1-11-1.8-16.5-2.6c-1.1-0.2-2.3-0.3-3.4-0.5
				c-5.8-0.8-11.7-1.5-17.6-2c-1.2-0.1-2.4-0.2-3.6-0.3c-5.7-0.5-11.5-1-17.3-1.3c-0.4,0-0.9-0.1-1.3-0.1
				c-6.1-0.3-12.2-0.5-18.3-0.7c-1.3,0-2.7-0.1-4-0.1c-6.1-0.1-12.2-0.1-18.3,0.1c-0.9,0-1.8,0.1-2.7,0.1
				c-5.7,0.2-11.4,0.4-17.1,0.7c-1.1,0.1-2.2,0.1-3.3,0.2c-6.2,0.4-12.4,0.9-18.6,1.5c-1.3,0.1-2.7,0.3-4,0.4
				c-6.4,0.7-12.9,1.4-19.4,2.3c-6.7,0.9-13.3,2-20,3.2c-1.7,0.3-3.5,0.6-5.2,0.9c-6,1.1-12,2.3-17.9,3.6c-0.7,0.1-1.4,0.3-2,0.4
				c-6.5,1.5-13,3-19.5,4.7c-1.7,0.4-3.3,0.9-5,1.3c-5.6,1.5-11.1,3-16.6,4.7c-1.1,0.3-2.1,0.6-3.2,0.9c-6.4,1.9-12.7,4-19,6.1
				c-1.5,0.5-3.1,1.1-4.6,1.6c-5.3,1.8-10.5,3.8-15.7,5.7c-1.3,0.5-2.6,1-3.9,1.5c-6.2,2.4-12.3,4.9-18.4,7.5
				c-1.4,0.6-2.8,1.2-4.1,1.8c-5.1,2.2-10.1,4.5-15.2,6.8c-0.9,0.4-1.8,0.8-2.8,1.2c-0.4,0.2-0.8,0.4-1.3,0.6
				c-7.2,3.4-14.3,7-21.4,10.6c-1.3,0.7-2.6,1.4-3.9,2c-7.1,3.7-14.1,7.6-21,11.6c-1.1,0.6-2.1,1.2-3.2,1.9
				c-7.2,4.2-14.4,8.5-21.4,13c-0.2,0.1-0.5,0.3-0.7,0.4c-7,4.4-13.9,9.1-20.8,13.8c-0.6,0.4-1.2,0.8-1.7,1.2
				c-0.3,0.2-0.6,0.5-1,0.7c-5.5,3.8-10.9,7.7-16.3,11.7c-1.3,0.9-2.5,1.9-3.8,2.8c-4.4,3.3-8.8,6.7-13.1,10.1c-1.3,1-2.6,2-3.8,3
				c-5.2,4.2-10.4,8.4-15.6,12.7c-1,0.8-2,1.7-2.9,2.5c-4.3,3.7-8.6,7.4-12.9,11.2c-0.8,0.7-1.6,1.3-2.3,2c-0.6,0.5-1.1,1.1-1.7,1.6
				c-4.5,4.1-9,8.2-13.4,12.5c-0.2,0.2-0.4,0.4-0.7,0.6c-4.6,4.4-9.2,8.9-13.7,13.5c-1.3,1.3-2.6,2.6-3.9,4
				c-3.4,3.5-6.8,7-10.1,10.5c-1.2,1.3-2.5,2.6-3.7,4c-4.4,4.7-8.7,9.4-13,14.3c-0.1,0.1-0.1,0.1-0.2,0.2c-0.1,0.2-0.3,0.3-0.4,0.5
				c-6.7,7.6-13.3,15.4-19.7,23.3l46.6,25.3c6.4-7.9,13-15.7,19.7-23.3c0.2-0.2,0.4-0.5,0.6-0.7c4.3-4.8,8.6-9.6,13-14.3
				c1.2-1.3,2.5-2.6,3.7-4c3.3-3.5,6.7-7,10.1-10.5c1.3-1.3,2.6-2.6,3.9-4c4.5-4.5,9.1-9.1,13.7-13.5c0.2-0.2,0.4-0.4,0.7-0.6
				c4.4-4.2,8.9-8.4,13.4-12.5c1.3-1.2,2.7-2.4,4-3.6c4.3-3.8,8.5-7.5,12.9-11.2c1-0.8,1.9-1.7,2.9-2.5c5.1-4.3,10.3-8.6,15.6-12.8
				c1.3-1,2.5-2,3.8-3c4.4-3.4,8.8-6.8,13.2-10.1c1.2-0.9,2.5-1.9,3.7-2.8c5.4-4,10.8-7.9,16.3-11.7c0.9-0.6,1.8-1.2,2.7-1.9
				c6.9-4.7,13.8-9.3,20.8-13.8c0.2-0.1,0.5-0.3,0.7-0.4c7.1-4.5,14.2-8.8,21.4-13c1.1-0.6,2.1-1.2,3.2-1.9c6.9-4,13.9-7.8,21-11.6
				c1.3-0.7,2.6-1.4,3.9-2c7.1-3.7,14.2-7.2,21.4-10.6c1.3-0.6,2.7-1.2,4-1.9c5-2.3,10.1-4.6,15.2-6.8c1.4-0.6,2.8-1.2,4.1-1.8
				c6.1-2.6,12.3-5.1,18.4-7.5c1.3-0.5,2.6-1,3.9-1.5c5.2-2,10.4-3.9,15.7-5.7c1.5-0.5,3.1-1.1,4.6-1.6c6.3-2.1,12.6-4.2,19-6.1
				c1.1-0.3,2.1-0.6,3.2-0.9c5.5-1.6,11-3.2,16.6-4.7c1.7-0.4,3.3-0.9,5-1.3c6.5-1.7,13-3.3,19.5-4.7c0.7-0.1,1.4-0.3,2-0.4
				c5.9-1.3,11.9-2.5,17.9-3.6c1.7-0.3,3.5-0.6,5.2-0.9c6.6-1.2,13.3-2.3,20-3.2c6.5-0.9,12.9-1.7,19.4-2.3c1.3-0.1,2.7-0.3,4-0.4
				c6.2-0.6,12.5-1.1,18.6-1.5c1.1-0.1,2.2-0.1,3.3-0.2c5.7-0.3,11.5-0.6,17.1-0.7c0.9,0,1.8-0.1,2.7-0.1c6.1-0.1,12.3-0.1,18.3-0.1
				c1.3,0,2.7,0,4,0.1c6.1,0.1,12.3,0.3,18.3,0.7c0.4,0,0.9,0.1,1.3,0.1c5.8,0.3,11.6,0.8,17.3,1.3c1.2,0.1,2.4,0.2,3.6,0.3
				c5.9,0.6,11.8,1.3,17.6,2c1.1,0.2,2.3,0.3,3.4,0.5c5.5,0.8,11,1.6,16.5,2.6c0.6,0.1,1.2,0.2,1.8,0.3c5.8,1,11.6,2.2,17.3,3.4
				c1.3,0.3,2.5,0.5,3.7,0.8c5.7,1.3,11.4,2.6,17,4.1c0.7,0.2,1.4,0.4,2.1,0.6c5.2,1.4,10.3,2.8,15.4,4.4c1.1,0.3,2.2,0.7,3.4,1
				c5.5,1.7,10.9,3.5,16.3,5.4c1.1,0.4,2.2,0.8,3.3,1.2c5,1.8,9.9,3.6,14.8,5.5c0.7,0.3,1.4,0.5,2.1,0.8c5.3,2.1,10.6,4.4,15.8,6.6
				c1.2,0.5,2.4,1,3.5,1.6c5.3,2.4,10.5,4.8,15.6,7.3c5.9,2.9,11.7,5.9,17.5,9L799.2,182.1z"/>
		</g>
		<g>
			<linearGradient id="SVGID_7_" gradientUnits="userSpaceOnUse" x1="199.1628" y1="484.2929" x2="698.3317" y2="484.2929">
				<stop  offset="0" style="stop-color:#C7C7C7"/>
				<stop  offset="0.6591" style="stop-color:#BDBDBD"/>
				<stop  offset="1" style="stop-color:#B5B5B5"/>
			</linearGradient>
			<path class="st7" d="M642,407.2c-1.1-0.4-2.2-0.8-3.3-1.2c-2.2-0.8-4.4-1.6-6.6-2.3c-1.3-0.4-2.7-0.8-4.1-1.3c-2-0.6-4-1.3-6-1.9
				c-1.5-0.4-3-0.8-4.4-1.2c-1.8-0.5-3.5-1-5.3-1.5c-0.1,0-0.2-0.1-0.4-0.1c-4.6-1.2-9.3-2.3-14-3.3c-1.2-0.2-2.3-0.5-3.5-0.7
				c-4.4-0.9-8.8-1.7-13.2-2.4c-0.5-0.1-0.9-0.2-1.4-0.2c-4.8-0.7-9.7-1.4-14.6-1.9c-1.2-0.1-2.4-0.3-3.6-0.4
				c-4.7-0.5-9.3-0.8-14-1.1c-0.3,0-0.7,0-1-0.1c-5-0.3-10-0.4-15.1-0.4c-1.2,0-2.5,0-3.7,0c-4.9,0-9.9,0.1-14.9,0.3
				c-0.2,0-0.4,0-0.6,0c-5.1,0.2-10.3,0.6-15.5,1.1c-1.3,0.1-2.6,0.2-3.9,0.4c-5.2,0.5-10.5,1.1-15.7,1.8
				c-6.1,0.9-12.1,1.9-18.2,3.1c-1.7,0.3-3.5,0.7-5.2,1c-4.6,0.9-9.2,2-13.8,3.1c-1.5,0.4-3.1,0.7-4.6,1.1
				c-5.9,1.5-11.7,3.1-17.5,4.9c-1,0.3-2,0.7-3,1c-4.9,1.5-9.7,3.2-14.5,4.9c-1.7,0.6-3.4,1.2-5.1,1.9c-4.6,1.7-9.2,3.5-13.8,5.4
				c-1.2,0.5-2.3,0.9-3.5,1.4c-5,2.1-9.9,4.3-14.8,6.6c-0.5,0.3-1.1,0.5-1.6,0.8c-2.1,1-4.2,2.1-6.2,3.1c-3.7,1.8-7.4,3.7-11.1,5.7
				c-2.3,1.2-4.5,2.5-6.8,3.7c-3.4,1.9-6.9,3.9-10.2,5.9c-2.3,1.4-4.6,2.7-6.8,4.1c-3.3,2.1-6.6,4.1-9.9,6.3
				c-2.2,1.4-4.4,2.9-6.6,4.4c-1.1,0.8-2.3,1.5-3.5,2.3c-2.9,2-5.8,4.1-8.7,6.2c-0.9,0.6-1.8,1.3-2.7,1.9c-5,3.7-9.8,7.4-14.7,11.3
				c-1.2,1-2.5,2-3.7,3c-3.7,3-7.4,6.2-11.1,9.3c-1.3,1.1-2.7,2.3-4,3.5c-0.8,0.7-1.7,1.5-2.5,2.2c-3.7,3.3-7.3,6.7-10.9,10.2
				c-0.6,0.5-1.1,1.1-1.6,1.6c-4,3.8-7.9,7.8-11.7,11.7c-1.1,1.1-2.2,2.3-3.3,3.4c-4.1,4.4-8.2,8.8-12.2,13.3
				c-0.1,0.1-0.2,0.2-0.3,0.3c-4.7,5.4-9.4,10.9-13.9,16.5l46.6,25.3c4.5-5.6,9.2-11.1,13.9-16.5c4.1-4.6,8.3-9.2,12.5-13.6
				c1.1-1.1,2.2-2.3,3.3-3.4c3.9-4,7.8-7.9,11.7-11.7c0.6-0.5,1.1-1.1,1.6-1.6c4.4-4.2,8.9-8.3,13.5-12.4c1.3-1.2,2.6-2.3,4-3.5
				c3.6-3.2,7.3-6.3,11.1-9.3c1.2-1,2.4-2,3.7-3c4.8-3.9,9.7-7.6,14.6-11.3c0.9-0.7,1.8-1.3,2.7-1.9c4-2.9,8-5.7,12.1-8.5
				c2.2-1.5,4.4-2.9,6.6-4.4c3.3-2.1,6.6-4.2,9.9-6.3c2.3-1.4,4.6-2.8,6.8-4.1c3.4-2,6.8-3.9,10.2-5.9c2.3-1.3,4.5-2.5,6.8-3.7
				c3.7-2,7.4-3.8,11.1-5.7c2.1-1,4.2-2.1,6.3-3.1c5.4-2.6,10.9-5.1,16.4-7.4c1.1-0.5,2.3-0.9,3.4-1.4c4.6-1.9,9.2-3.7,13.8-5.4
				c1.7-0.6,3.4-1.3,5.1-1.9c4.8-1.7,9.6-3.3,14.5-4.9c1-0.3,2-0.7,3-1c5.8-1.8,11.7-3.4,17.5-4.9c1.5-0.4,3.1-0.7,4.6-1.1
				c4.6-1.1,9.2-2.1,13.8-3.1c1.7-0.4,3.4-0.7,5.2-1c6-1.1,12.1-2.2,18.2-3.1c5.3-0.7,10.5-1.3,15.7-1.8c1.3-0.1,2.6-0.2,3.9-0.4
				c5.2-0.4,10.3-0.8,15.5-1.1c0.2,0,0.4,0,0.6,0c5-0.2,9.9-0.3,14.8-0.3c1.2,0,2.5,0,3.7,0c5,0.1,10.1,0.2,15,0.4
				c0.3,0,0.7,0.1,1,0.1c4.7,0.3,9.4,0.7,14,1.1c1.2,0.1,2.4,0.2,3.6,0.4c4.9,0.5,9.7,1.1,14.6,1.9c0.5,0.1,0.9,0.2,1.4,0.2
				c4.4,0.7,8.8,1.5,13.2,2.4c1.2,0.2,2.3,0.5,3.5,0.7c4.7,1,9.4,2.1,14,3.3c1.9,0.5,3.8,1,5.7,1.6c1.5,0.4,3,0.8,4.4,1.2
				c2,0.6,4,1.2,6,1.9c1.4,0.4,2.7,0.8,4.1,1.3c2.2,0.7,4.4,1.5,6.6,2.3c1.1,0.4,2.3,0.8,3.4,1.2c3.3,1.2,6.6,2.5,9.8,3.8L651.8,411
				C648.5,409.7,645.2,408.4,642,407.2z"/>
		</g>
	</g>
	<g>
		<g>
			<linearGradient id="SVGID_8_" gradientUnits="userSpaceOnUse" x1="245.736" y1="534.989" x2="698.3317" y2="534.989">
				<stop  offset="0" style="stop-color:#EDEDED"/>
				<stop  offset="0.6549" style="stop-color:#E3E3E3"/>
				<stop  offset="1" style="stop-color:#DBDBDB"/>
			</linearGradient>
			<path class="st8" d="M523.8,416.2c62.7-8.8,122-1.1,174.5,20.1c-38.6,24.6-69.8,62.6-87.5,106.8c-27.4-6.1-56.7-7.4-87.2-3.1
				c-77.1,10.8-146.8,55-196.9,117.4l-80.9-76.1C316.6,493.6,415.1,431.5,523.8,416.2z"/>
		</g>
	</g>
	<g>
		<linearGradient id="SVGID_9_" gradientUnits="userSpaceOnUse" x1="737.8666" y1="631.1978" x2="792.657" y2="631.1978">
			<stop  offset="0" style="stop-color:#D9D9D9;stop-opacity:0"/>
			<stop  offset="0.2248" style="stop-color:#D3D3D3;stop-opacity:0.2248"/>
			<stop  offset="0.5189" style="stop-color:#C3C3C3;stop-opacity:0.5189"/>
			<stop  offset="0.8501" style="stop-color:#A8A8A8;stop-opacity:0.8501"/>
			<stop  offset="1" style="stop-color:#999999"/>
		</linearGradient>
		<polygon class="st9" points="788.3,554.7 737.9,581.3 737.9,707.7 792.7,679.8 		"/>
	</g>
	<g>
		<linearGradient id="SVGID_10_" gradientUnits="userSpaceOnUse" x1="738.0559" y1="740.9694" x2="801.6477" y2="740.9694">
			<stop  offset="0" style="stop-color:#D9D9D9;stop-opacity:0"/>
			<stop  offset="0.2248" style="stop-color:#D3D3D3;stop-opacity:0.2248"/>
			<stop  offset="0.5189" style="stop-color:#C3C3C3;stop-opacity:0.5189"/>
			<stop  offset="0.8501" style="stop-color:#A8A8A8;stop-opacity:0.8501"/>
			<stop  offset="1" style="stop-color:#999999"/>
		</linearGradient>
		<polygon class="st10" points="792.7,705.5 742.2,731.1 738.1,776.5 801.6,749.1 		"/>
	</g>
	<linearGradient id="SVGID_11_" gradientUnits="userSpaceOnUse" x1="785.9849" y1="725.4915" x2="831.5548" y2="725.4915">
		<stop  offset="0" style="stop-color:#C7C7C7"/>
		<stop  offset="0.6591" style="stop-color:#BDBDBD"/>
		<stop  offset="1" style="stop-color:#B5B5B5"/>
	</linearGradient>
	<path class="st11" d="M819.9,702.6c-0.1-0.1-0.2-0.1-0.3-0.2c-0.2-0.1-0.4-0.2-0.5-0.2c-0.1,0-0.2-0.1-0.2-0.1
		c-0.3-0.1-0.6-0.2-1-0.3c0,0,0,0,0,0c-0.3-0.1-0.5-0.1-0.8-0.2c-0.1,0-0.3-0.1-0.4-0.1c-0.4-0.1-0.9-0.1-1.4-0.1
		c-2.5-0.1-5.7,0.1-9.6,0.7c-4.1,0.6-7.4,1.3-9.9,2.1c-0.6,0.2-1.3,0.5-1.8,0.7c0,0,0,0,0,0c-0.5,0.2-0.9,0.5-1.4,0.7
		c-0.1,0.1-0.2,0.1-0.3,0.2c-0.1,0.1-0.2,0.1-0.3,0.2c-0.3,0.2-0.5,0.4-0.8,0.6c-0.1,0.1-0.2,0.2-0.3,0.2c0,0,0,0-0.1,0
		c-0.3,0.3-0.6,0.6-0.8,0.8c-0.1,0.1-0.2,0.2-0.2,0.3c-0.2,0.2-0.4,0.4-0.5,0.7c-0.1,0.1-0.2,0.3-0.3,0.5c-0.1,0.2-0.2,0.3-0.3,0.5
		c-0.1,0.1-0.1,0.2-0.2,0.3c-0.2,0.3-0.3,0.7-0.5,1c0,0.1-0.1,0.1-0.1,0.2c-0.1,0.2-0.2,0.4-0.2,0.6c-0.1,0.2-0.2,0.5-0.2,0.7
		c-0.1,0.2-0.1,0.4-0.2,0.5c-0.2,0.6-0.3,1.2-0.4,1.8c-0.5,2.8-0.8,6.4-0.8,10.8c0,4.4,0.2,8,0.8,10.7c0.5,2.8,1.5,4.7,2.9,6
		c0.4,0.4,0.9,0.7,1.4,1l11.6,6.3c-0.5-0.3-1-0.6-1.4-1c-1.4-1.3-2.4-3.2-2.9-6c-0.5-2.8-0.8-6.3-0.8-10.7c0-4.4,0.3-8,0.8-10.8
		c0.1-0.6,0.3-1.2,0.4-1.8c0.1-0.2,0.1-0.4,0.2-0.5c0.1-0.5,0.3-0.9,0.5-1.3c0-0.1,0.1-0.1,0.1-0.2c0.2-0.5,0.4-0.9,0.7-1.3
		c0.1-0.2,0.2-0.3,0.3-0.5c0.3-0.4,0.5-0.8,0.8-1.1c0.3-0.4,0.7-0.8,1.1-1.2c0.1-0.1,0.2-0.2,0.3-0.2c0.3-0.3,0.7-0.5,1-0.8
		c0.1-0.1,0.2-0.1,0.3-0.2c0.4-0.3,0.9-0.5,1.4-0.8c0.6-0.3,1.2-0.5,1.8-0.7c2.5-0.8,5.8-1.5,9.9-2.1c3.9-0.5,7.1-0.8,9.6-0.7
		c0.5,0,0.9,0.1,1.4,0.1c0.1,0,0.3,0.1,0.4,0.1c0.3,0.1,0.6,0.1,0.8,0.2c0.4,0.1,0.7,0.2,1,0.3c0.1,0,0.2,0.1,0.2,0.1
		c0.3,0.1,0.6,0.2,0.8,0.4L819.9,702.6z"/>
	<g>
		<g>
			<linearGradient id="SVGID_12_" gradientUnits="userSpaceOnUse" x1="797.6282" y1="729.3016" x2="836.9523" y2="729.3016">
				<stop  offset="0" style="stop-color:#F4F4F4"/>
				<stop  offset="1" style="stop-color:#F2F2F2"/>
			</linearGradient>
			<path class="st12" d="M836.1,715.9c0.6,2.7,0.9,6.2,0.9,10.6c0,4.4-0.3,8-0.9,10.9c-0.6,2.9-1.6,5.2-3.2,6.8
				c-1.5,1.7-3.6,3-6.1,3.9c-2.5,0.9-5.7,1.6-9.6,2.1c-4.1,0.6-7.4,0.8-9.9,0.6c-2.5-0.2-4.5-0.9-6-2.2c-1.4-1.3-2.4-3.2-2.9-6
				c-0.5-2.8-0.8-6.3-0.8-10.7c0-4.4,0.3-8,0.8-10.8c0.5-2.8,1.5-5.1,2.9-6.9c1.4-1.7,3.4-3,6-3.8c2.5-0.8,5.8-1.5,9.9-2.1
				c3.9-0.5,7.1-0.8,9.6-0.7c2.5,0.1,4.6,0.8,6.1,2.1C834.4,711.2,835.5,713.2,836.1,715.9z"/>
		</g>
	</g>
	<g>
		<polygon class="st0" points="804.3,686.1 792.7,679.8 788.3,554.7 800,561 		"/>
	</g>
	<g>
		<g>
			<linearGradient id="SVGID_13_" gradientUnits="userSpaceOnUse" x1="788.3483" y1="555.3995" x2="835.2635" y2="555.3995">
				<stop  offset="0" style="stop-color:#C7C7C7"/>
				<stop  offset="0.6591" style="stop-color:#BDBDBD"/>
				<stop  offset="1" style="stop-color:#B5B5B5"/>
			</linearGradient>
			<polygon class="st13" points="800,561 788.3,554.7 823.6,549.8 835.3,556.1 			"/>
		</g>
	</g>
	<g>
		<g>
			<linearGradient id="SVGID_14_" gradientUnits="userSpaceOnUse" x1="799.9917" y1="621.0939" x2="835.2635" y2="621.0939">
				<stop  offset="0" style="stop-color:#F4F4F4"/>
				<stop  offset="1" style="stop-color:#F2F2F2"/>
			</linearGradient>
			<polygon class="st14" points="830.4,682.4 804.3,686.1 800,561 835.3,556.1 			"/>
		</g>
	</g>
</g>
</svg>
