<?xml version="1.0" encoding="utf-8"?>
<!-- Generator: Adobe Illustrator 22.1.0, SVG Export Plug-In . SVG Version: 6.00 Build 0)  -->
<svg version="1.1" id="图层_1" xmlns="http://www.w3.org/2000/svg" xmlns:xlink="http://www.w3.org/1999/xlink" x="0px" y="0px"
	 viewBox="0 0 1024 1024" style="enable-background:new 0 0 1024 1024;" xml:space="preserve">
<style type="text/css">
	.st0{fill:url(#SVGID_1_);}
	.st1{fill:url(#SVGID_2_);}
	.st2{fill:#B0B2BF;}
	.st3{fill:url(#SVGID_3_);}
	.st4{fill:#C3C4CB;}
	.st5{fill:url(#SVGID_4_);}
	.st6{fill:url(#SVGID_5_);}
	.st7{fill:url(#SVGID_6_);}
	.st8{fill:url(#SVGID_7_);}
	.st9{fill:url(#SVGID_8_);}
	.st10{fill:url(#SVGID_9_);}
	.st11{fill:url(#SVGID_10_);}
	.st12{fill:url(#SVGID_11_);}
	.st13{fill:url(#SVGID_12_);}
	.st14{fill:url(#SVGID_13_);}
	.st15{fill:url(#SVGID_14_);}
</style>
<g>
	<g>
		
			<linearGradient id="SVGID_1_" gradientUnits="userSpaceOnUse" x1="415.4724" y1="561.7094" x2="415.4724" y2="-10.0888" gradientTransform="matrix(1 0.3929 0 1 0 233.5851)">
			<stop  offset="0" style="stop-color:#C7C7C7"/>
			<stop  offset="0.6591" style="stop-color:#BDBDBD"/>
			<stop  offset="1" style="stop-color:#B5B5B5"/>
		</linearGradient>
		<polygon class="st0" points="428.3,959.6 402.7,953.5 402.7,385.7 428.3,391.7 		"/>
	</g>
	<g>
		
			<linearGradient id="SVGID_2_" gradientUnits="userSpaceOnUse" x1="442.7506" y1="1226.7772" x2="442.7506" y2="657.1091" gradientTransform="matrix(1 -0.2604 0 1 7.500016e-04 -155.0196)">
			<stop  offset="0" style="stop-color:#EDEDED"/>
			<stop  offset="0.6549" style="stop-color:#E3E3E3"/>
			<stop  offset="1" style="stop-color:#DBDBDB"/>
		</linearGradient>
		<polygon class="st1" points="461.8,951.5 423.7,959.6 423.7,391.7 461.8,383.7 		"/>
	</g>
	<g>
		<path class="st2" d="M442.3,412.6l-270.1,17.5V199.3c0-71.2,55.3-130.2,126.3-134.8l0,0c77.9-5.1,143.8,56.7,143.8,134.8V412.6z"
			/>
		<g>
			<linearGradient id="SVGID_3_" gradientUnits="userSpaceOnUse" x1="172.161" y1="463.8659" x2="791.8579" y2="463.8659">
				<stop  offset="0" style="stop-color:#C7C7C7"/>
				<stop  offset="0.6591" style="stop-color:#BDBDBD"/>
				<stop  offset="1" style="stop-color:#B5B5B5"/>
			</linearGradient>
			<polygon class="st3" points="172.2,430.1 521.7,515.1 791.9,497.6 442.3,412.6 			"/>
		</g>
		<polygon class="st4" points="791.9,497.6 442.3,412.6 442.3,198.3 791.9,283.3 		"/>
		<g>
			<g>
				<linearGradient id="SVGID_4_" gradientUnits="userSpaceOnUse" x1="691.8144" y1="154.1721" x2="693.9539" y2="154.1721">
					<stop  offset="0" style="stop-color:#E6E6E6"/>
					<stop  offset="1" style="stop-color:#DCDCDC"/>
				</linearGradient>
				<path class="st5" d="M694,154.5v-0.1l-2.1-0.5C692.5,154,693.2,154.3,694,154.5z"/>
			</g>
			<g>
				<linearGradient id="SVGID_5_" gradientUnits="userSpaceOnUse" x1="172.161" y1="289.6755" x2="687.751" y2="289.6755">
					<stop  offset="0" style="stop-color:#E6E6E6"/>
					<stop  offset="0.7534" style="stop-color:#DCDCDC"/>
					<stop  offset="1" style="stop-color:#D7D7D7"/>
				</linearGradient>
				<path class="st6" d="M648.1,149.5c13.7-0.9,27,0.4,39.7,3.4L341.9,68.8c-1.1-0.3-2.2-0.5-3.3-0.8l-3-0.7l0,0.1
					c-11.9-2.6-24.3-3.7-37.2-2.9h0c-71.1,4.6-126.3,63.6-126.3,134.8v230.9l156.5,38l193.1,46.9V284.3
					C521.7,213.1,577,154.1,648.1,149.5z"/>
			</g>
		</g>
		<g>
			<linearGradient id="SVGID_6_" gradientUnits="userSpaceOnUse" x1="346.9447" y1="515.1083" x2="346.9447" y2="196.067">
				<stop  offset="0" style="stop-color:#E6E6E6"/>
				<stop  offset="0.7534" style="stop-color:#DCDCDC"/>
				<stop  offset="1" style="stop-color:#D7D7D7"/>
			</linearGradient>
			<polygon class="st7" points="521.7,515.1 172.2,430.1 172.2,196.1 521.7,281 			"/>
		</g>
		<g>
			<g>
				<linearGradient id="SVGID_7_" gradientUnits="userSpaceOnUse" x1="656.7933" y1="515.1086" x2="656.7933" y2="497.5857">
					<stop  offset="0" style="stop-color:#D9D9D9"/>
					<stop  offset="0.5009" style="stop-color:#CECECE"/>
					<stop  offset="1" style="stop-color:#BFBFBF"/>
				</linearGradient>
				<polygon class="st8" points="521.7,515.1 791.9,497.6 791.9,497.6 521.7,515.1 				"/>
			</g>
			<g>
				<linearGradient id="SVGID_8_" gradientUnits="userSpaceOnUse" x1="656.7933" y1="497.5857" x2="656.7933" y2="149.1858">
					<stop  offset="0" style="stop-color:#D9D9D9"/>
					<stop  offset="0.5009" style="stop-color:#CECECE"/>
					<stop  offset="1" style="stop-color:#BFBFBF"/>
				</linearGradient>
				<path class="st9" d="M657,149.2c-2.9,0-5.9,0.1-8.9,0.3h0c-71.1,4.6-126.3,63.6-126.3,134.8v147.7l270.1,65.7V284.3
					C791.9,209.2,730.9,149.2,657,149.2z"/>
			</g>
		</g>
		<g>
			<linearGradient id="SVGID_9_" gradientUnits="userSpaceOnUse" x1="521.7287" y1="332.1472" x2="791.858" y2="332.1472">
				<stop  offset="0" style="stop-color:#F0F0F0"/>
				<stop  offset="1" style="stop-color:#F0F0F0"/>
			</linearGradient>
			<path class="st10" d="M657,166.7c64.7,0,117.4,52.7,117.4,117.5v196.9l-235.1,15.2V284.3c0-61.8,48.3-113.3,109.9-117.3
				C651.8,166.8,654.4,166.7,657,166.7 M657,149.2c-2.9,0-5.9,0.1-8.9,0.3h0c-71.1,4.6-126.3,63.6-126.3,134.8v230.9l270.1-17.5
				V284.3C791.9,209.2,730.9,149.2,657,149.2L657,149.2z"/>
		</g>
	</g>
	<g>
		
			<linearGradient id="SVGID_10_" gradientUnits="userSpaceOnUse" x1="-1548.2416" y1="167.6643" x2="-1490.6014" y2="179.8729" gradientTransform="matrix(7.490315e-02 0.9972 -0.9972 7.490315e-02 974.6546 1887.2177)">
			<stop  offset="0" style="stop-color:#F4F4F4"/>
			<stop  offset="1" style="stop-color:#F2F2F2"/>
		</linearGradient>
		<path class="st11" d="M729.8,370.5c0,0,7.7,25.1,33.6,51.7c-47.5,0.4-148.9-14-151.3-77C635,363,686.9,381.6,729.8,370.5z"/>
	</g>
	<g>
		
			<linearGradient id="SVGID_11_" gradientUnits="userSpaceOnUse" x1="-1928.6021" y1="1056.9746" x2="-1734.6123" y2="1056.9746" gradientTransform="matrix(-0.9849 -0.1733 -0.1733 0.9849 -890.051 -471.0648)">
			<stop  offset="0" style="stop-color:#F4F4F4"/>
			<stop  offset="1" style="stop-color:#F2F2F2"/>
		</linearGradient>
		<path class="st12" d="M837.5,840.1c0,0-24.6,103.7-108.7,108c-84.1,4.3-99.8-42.5-99.8-42.5s92-13.2,112.5-63
			C770,847.6,813.4,848.8,837.5,840.1z"/>
	</g>
	<g>
		
			<linearGradient id="SVGID_12_" gradientUnits="userSpaceOnUse" x1="-1903.6802" y1="1096.1311" x2="-1777.3159" y2="1096.1311" gradientTransform="matrix(-0.9849 -0.1733 -0.1733 0.9849 -890.051 -471.0648)">
			<stop  offset="0" style="stop-color:#EDEDED"/>
			<stop  offset="0.6549" style="stop-color:#E3E3E3"/>
			<stop  offset="1" style="stop-color:#DBDBDB"/>
		</linearGradient>
		<path class="st13" d="M799.4,912.9c-16.6,18.5-39.5,33.6-70.6,35.2c-27.5,1.4-47.7-2.7-62.4-8.8c27.3-0.8,40.4-0.3,63.7-16.5
			C758.6,927.9,763.2,926.8,799.4,912.9z"/>
	</g>
	<g>
		
			<linearGradient id="SVGID_13_" gradientUnits="userSpaceOnUse" x1="834.2917" y1="2504.4409" x2="1135.8271" y2="2454.5061" gradientTransform="matrix(0.9846 -0.1106 -0.2603 -0.6682 362.4897 2393.9944)">
			<stop  offset="0" style="stop-color:#C7C7C7"/>
			<stop  offset="0.6591" style="stop-color:#BDBDBD"/>
			<stop  offset="1" style="stop-color:#B5B5B5"/>
		</linearGradient>
		<path class="st14" d="M745,751.1c72.7-8.2,117.1-55,97.6-105.2l-55.5-141.6l-265.3,8l-4.8,9.6l59.9,153.9
			c18.5,47.6,88.2,80.9,159.3,76.1l0,0C739.1,751.6,742.1,751.4,745,751.1L745,751.1z"/>
	</g>
	<g>
		
			<linearGradient id="SVGID_14_" gradientUnits="userSpaceOnUse" x1="1038.0437" y1="2680.4346" x2="942.3539" y2="2318.481" gradientTransform="matrix(0.9846 -0.1106 -0.2603 -0.6682 362.4897 2393.9944)">
			<stop  offset="0" style="stop-color:#EBEBEB"/>
			<stop  offset="1" style="stop-color:#F0F0F0"/>
		</linearGradient>
		<path class="st15" d="M749.8,741.5c72.7-8.2,117.1-55,97.6-105.2l-55.5-141.6l-270.1,17.5l59.9,153.9
			c18.5,47.6,88.2,80.9,159.3,76.1l0,0C743.9,742.1,746.9,741.8,749.8,741.5L749.8,741.5z"/>
	</g>
</g>
</svg>
