<?xml version="1.0" encoding="utf-8"?>
<!-- Generator: Adobe Illustrator 22.1.0, SVG Export Plug-In . SVG Version: 6.00 Build 0)  -->
<svg version="1.1" id="图层_1" xmlns="http://www.w3.org/2000/svg" xmlns:xlink="http://www.w3.org/1999/xlink" x="0px" y="0px"
	 viewBox="0 0 1024 1024" style="enable-background:new 0 0 1024 1024;" xml:space="preserve">
<style type="text/css">
	.st0{fill:url(#SVGID_1_);}
	.st1{fill:url(#SVGID_2_);}
	.st2{fill:url(#SVGID_3_);}
	.st3{fill:url(#SVGID_4_);}
	.st4{fill:url(#SVGID_5_);}
	.st5{fill:url(#SVGID_6_);}
	.st6{fill:url(#SVGID_7_);}
	.st7{fill:url(#SVGID_8_);}
	.st8{fill:url(#SVGID_9_);}
	.st9{fill:url(#SVGID_10_);}
	.st10{fill:url(#SVGID_11_);}
	.st11{fill:url(#SVGID_12_);}
	.st12{fill:url(#SVGID_13_);}
	.st13{fill:url(#SVGID_14_);}
	.st14{fill:url(#SVGID_15_);}
	.st15{fill:url(#SVGID_16_);}
	.st16{fill:url(#SVGID_17_);}
</style>
<g>
	<linearGradient id="SVGID_1_" gradientUnits="userSpaceOnUse" x1="253.8369" y1="951.6238" x2="253.8369" y2="918.1108">
		<stop  offset="0" style="stop-color:#C7C7C7"/>
		<stop  offset="0.6591" style="stop-color:#BDBDBD"/>
		<stop  offset="1" style="stop-color:#B5B5B5"/>
	</linearGradient>
	<polygon class="st0" points="264.2,951.6 241.2,935.7 266.4,918.1 	"/>
	<g>
		
			<linearGradient id="SVGID_2_" gradientUnits="userSpaceOnUse" x1="299.2866" y1="-140.0307" x2="299.2866" y2="-45.8248" gradientTransform="matrix(0.8863 -0.1197 0 1 237.6021 250.2753)">
			<stop  offset="0" style="stop-color:#C7C7C7"/>
			<stop  offset="1" style="stop-color:#CBCCCC"/>
		</linearGradient>
		<path class="st1" d="M579.3,64.1l-34.9,4.7L461.3,80l-34.9,4.7c-14.1,1.9-25.5,16.3-25.5,32.2v36.6c0,15.9,11.4,27.3,25.5,25.3
			l152.9-20.7c14.1-1.9,25.5-16.3,25.5-32.2V89.4C604.8,73.5,593.4,62.2,579.3,64.1z"/>
	</g>
	<g>
		<linearGradient id="SVGID_3_" gradientUnits="userSpaceOnUse" x1="592.6025" y1="80.1027" x2="614.9777" y2="80.1027">
			<stop  offset="0" style="stop-color:#C7C7C7"/>
			<stop  offset="1" style="stop-color:#CBCCCC"/>
		</linearGradient>
		<polygon class="st2" points="592.6,66.5 615,82 596.1,93.7 		"/>
	</g>
	<g>
		
			<linearGradient id="SVGID_4_" gradientUnits="userSpaceOnUse" x1="299.2866" y1="699.8598" x2="299.2866" y2="-82.1796" gradientTransform="matrix(0.8863 -0.1197 0 1 237.6021 250.2753)">
			<stop  offset="0" style="stop-color:#C7C7C7"/>
			<stop  offset="0.6591" style="stop-color:#BDBDBD"/>
			<stop  offset="1" style="stop-color:#B5B5B5"/>
		</linearGradient>
		<path class="st3" d="M726.6,884.1l-447.5,60.5c-35.5,4.8-64.2-23.8-64.2-63.8V243.6c0-40,28.7-76.3,64.2-81.1L726.6,102
			c35.5-4.8,64.2,23.8,64.2,63.8V803C790.8,843,762.1,879.3,726.6,884.1z"/>
	</g>
	<g>
		
			<linearGradient id="SVGID_5_" gradientUnits="userSpaceOnUse" x1="322.764" y1="717.1808" x2="322.764" y2="-64.8586" gradientTransform="matrix(0.8863 -0.1197 0 1 237.6021 250.2753)">
			<stop  offset="0" style="stop-color:#EDEDED"/>
			<stop  offset="0.6549" style="stop-color:#E3E3E3"/>
			<stop  offset="1" style="stop-color:#DBDBDB"/>
		</linearGradient>
		<path class="st4" d="M747.4,898.6L299.9,959c-35.5,4.8-64.2-23.8-64.2-63.8V258.1c0-40,28.7-76.3,64.2-81.1l447.5-60.5
			c35.5-4.8,64.2,23.8,64.2,63.8v637.2C811.6,857.5,782.9,893.8,747.4,898.6z"/>
	</g>
	<g>
		<linearGradient id="SVGID_6_" gradientUnits="userSpaceOnUse" x1="421.4253" y1="160.5443" x2="421.4253" y2="139.2845">
			<stop  offset="0" style="stop-color:#C7C7C7"/>
			<stop  offset="1" style="stop-color:#CBCCCC"/>
		</linearGradient>
		<polygon class="st5" points="400.9,146 421.7,160.5 442,146 431.5,139.3 		"/>
	</g>
	<g>
		<linearGradient id="SVGID_7_" gradientUnits="userSpaceOnUse" x1="520.9058" y1="853.8502" x2="520.9058" y2="399.5071">
			<stop  offset="0" style="stop-color:#D1D1D1"/>
			<stop  offset="0.3336" style="stop-color:#C7C7C7"/>
			<stop  offset="0.9074" style="stop-color:#ABABAB"/>
			<stop  offset="1" style="stop-color:#A6A6A6"/>
		</linearGradient>
		<path class="st6" d="M284.3,399.5c0,0,2.2,313.9,72.1,402.5s401.2,36.8,401.2,36.8l-175-375.2L288.6,404L284.3,399.5z"/>
	</g>
	<g>
		
			<linearGradient id="SVGID_8_" gradientUnits="userSpaceOnUse" x1="49.387" y1="331.296" x2="595.0485" y2="331.296" gradientTransform="matrix(0.8863 -0.1197 0 1 237.6021 250.2753)">
			<stop  offset="0" style="stop-color:#F4F4F4"/>
			<stop  offset="1" style="stop-color:#F2F2F2"/>
		</linearGradient>
		<path class="st7" d="M765,843.9c0,0-305,54-401.5-70.8c-91.9-118.8-81.8-531.4-81.8-531.4L765,176.4V843.9z"/>
	</g>
	<g>
		
			<linearGradient id="SVGID_9_" gradientUnits="userSpaceOnUse" x1="81.3672" y1="505.233" x2="315.0486" y2="505.233" gradientTransform="matrix(0.8863 -0.1197 0 1 237.6021 250.2753)">
			<stop  offset="0" style="stop-color:#D9D9D9"/>
			<stop  offset="0.8539" style="stop-color:#CECECE"/>
			<stop  offset="1" style="stop-color:#CCCCCC"/>
		</linearGradient>
		<path class="st8" d="M516.8,848c-61.9-10.1-112.6-28.6-145.9-71.7c-27.7-35.8-48.9-90.9-61.2-160.8
			c56.3,95.5,125.9,87.2,125.9,87.2S427.3,785.3,516.8,848z"/>
	</g>
	<g>
		
			<linearGradient id="SVGID_10_" gradientUnits="userSpaceOnUse" x1="76.178" y1="499.5925" x2="315.0486" y2="499.5925" gradientTransform="matrix(0.8863 -0.1197 0 1 237.6021 250.2753)">
			<stop  offset="0" style="stop-color:#F4F4F4"/>
			<stop  offset="0.5086" style="stop-color:#EAEAEA"/>
			<stop  offset="1" style="stop-color:#DBDBDB"/>
		</linearGradient>
		<path class="st9" d="M516.8,848c-61.9-10.1-120-31.8-153.3-74.9c-27.7-35.8-46.1-98.3-58.4-168.2c56.3,95.5,123,94.6,123,94.6
			S427.3,785.3,516.8,848z"/>
	</g>
	<g>
		
			<linearGradient id="SVGID_11_" gradientUnits="userSpaceOnUse" x1="322.764" y1="-28.5038" x2="322.764" y2="-122.7097" gradientTransform="matrix(0.8863 -0.1197 0 1 237.6021 250.2753)">
			<stop  offset="0" style="stop-color:#F0F0F0"/>
			<stop  offset="0.4426" style="stop-color:#E6E6E6"/>
			<stop  offset="1" style="stop-color:#D2D2D2"/>
		</linearGradient>
		<path class="st10" d="M600.1,78.6l-34.9,4.7l-83.2,11.2l-34.9,4.7c-14.1,1.9-25.5,16.3-25.5,32.2v36.6c0,15.9,11.4,27.3,25.5,25.3
			l152.9-20.7c14.1-1.9,25.5-16.3,25.5-32.2v-36.6C625.6,88,614.2,76.7,600.1,78.6z"/>
	</g>
	
		<linearGradient id="SVGID_12_" gradientUnits="userSpaceOnUse" x1="289.5699" y1="182.5205" x2="399.3444" y2="182.5205" gradientTransform="matrix(0.9755 -0.1277 0 1 40.3167 210.5427)">
		<stop  offset="0" style="stop-color:#EDEDED"/>
		<stop  offset="0.6549" style="stop-color:#E3E3E3"/>
		<stop  offset="1" style="stop-color:#DBDBDB"/>
	</linearGradient>
	<polygon class="st11" points="429.9,396.9 322.8,411 322.8,301.2 429.9,287.2 	"/>
	
		<linearGradient id="SVGID_13_" gradientUnits="userSpaceOnUse" x1="431.6989" y1="146.3142" x2="714.8015" y2="146.3142" gradientTransform="matrix(0.9755 -0.1277 0 1 40.3167 210.5427)">
		<stop  offset="0" style="stop-color:#EDEDED"/>
		<stop  offset="0.6549" style="stop-color:#E3E3E3"/>
		<stop  offset="1" style="stop-color:#DBDBDB"/>
	</linearGradient>
	<polygon class="st12" points="737.6,284.2 461.5,320.4 461.5,283 737.6,246.9 	"/>
	
		<linearGradient id="SVGID_14_" gradientUnits="userSpaceOnUse" x1="431.6989" y1="218.7268" x2="714.8015" y2="218.7268" gradientTransform="matrix(0.9755 -0.1277 0 1 40.3167 210.5427)">
		<stop  offset="0" style="stop-color:#EDEDED"/>
		<stop  offset="0.6549" style="stop-color:#E3E3E3"/>
		<stop  offset="1" style="stop-color:#DBDBDB"/>
	</linearGradient>
	<polygon class="st13" points="737.6,356.7 461.5,392.8 461.5,355.5 737.6,319.3 	"/>
	
		<linearGradient id="SVGID_15_" gradientUnits="userSpaceOnUse" x1="289.5699" y1="376.8721" x2="399.3444" y2="376.8721" gradientTransform="matrix(0.9755 -0.1277 0 1 40.3167 210.5427)">
		<stop  offset="0" style="stop-color:#EDEDED"/>
		<stop  offset="0.6549" style="stop-color:#E3E3E3"/>
		<stop  offset="1" style="stop-color:#DBDBDB"/>
	</linearGradient>
	<polygon class="st14" points="429.9,591.3 322.8,605.3 322.8,495.5 429.9,481.5 	"/>
	
		<linearGradient id="SVGID_16_" gradientUnits="userSpaceOnUse" x1="431.6989" y1="340.6658" x2="714.8015" y2="340.6658" gradientTransform="matrix(0.9755 -0.1277 0 1 40.3167 210.5427)">
		<stop  offset="0" style="stop-color:#EDEDED"/>
		<stop  offset="0.6549" style="stop-color:#E3E3E3"/>
		<stop  offset="1" style="stop-color:#DBDBDB"/>
	</linearGradient>
	<polygon class="st15" points="737.6,478.6 461.5,514.8 461.5,477.4 737.6,441.2 	"/>
	
		<linearGradient id="SVGID_17_" gradientUnits="userSpaceOnUse" x1="431.6989" y1="413.0784" x2="714.8015" y2="413.0784" gradientTransform="matrix(0.9755 -0.1277 0 1 40.3167 210.5427)">
		<stop  offset="0" style="stop-color:#EDEDED"/>
		<stop  offset="0.6549" style="stop-color:#E3E3E3"/>
		<stop  offset="1" style="stop-color:#DBDBDB"/>
	</linearGradient>
	<polygon class="st16" points="737.6,551 461.5,587.2 461.5,549.8 737.6,513.6 	"/>
</g>
</svg>
