<?xml version="1.0" encoding="utf-8"?>
<!-- Generator: Adobe Illustrator 22.1.0, SVG Export Plug-In . SVG Version: 6.00 Build 0)  -->
<svg version="1.1" id="图层_1" xmlns="http://www.w3.org/2000/svg" xmlns:xlink="http://www.w3.org/1999/xlink" x="0px" y="0px"
	 viewBox="0 0 1024 1024" style="enable-background:new 0 0 1024 1024;" xml:space="preserve">
<style type="text/css">
	.st0{fill:url(#SVGID_1_);}
	.st1{fill:url(#SVGID_2_);}
	.st2{fill:url(#SVGID_3_);}
	.st3{fill:url(#SVGID_4_);}
	.st4{fill:url(#SVGID_5_);}
	.st5{fill:url(#SVGID_6_);}
	.st6{fill:url(#SVGID_7_);}
	.st7{fill:url(#SVGID_8_);}
	.st8{fill:url(#SVGID_9_);}
	.st9{fill:url(#SVGID_10_);}
	.st10{fill:#F4F4F4;}
	.st11{fill:#DBDBDB;}
	.st12{fill:url(#SVGID_11_);}
	.st13{fill:url(#SVGID_12_);}
	.st14{fill:#D9D9DA;}
	.st15{fill:url(#SVGID_13_);}
</style>
<g>
	<linearGradient id="SVGID_1_" gradientUnits="userSpaceOnUse" x1="232.258" y1="941.6779" x2="232.258" y2="910.1782">
		<stop  offset="0" style="stop-color:#C7C7C7"/>
		<stop  offset="0.6591" style="stop-color:#BDBDBD"/>
		<stop  offset="1" style="stop-color:#B5B5B5"/>
	</linearGradient>
	<polygon class="st0" points="242,941.7 220.4,926.7 244.1,910.2 	"/>
	<g>
		
			<linearGradient id="SVGID_2_" gradientUnits="userSpaceOnUse" x1="258.0608" y1="-154.8348" x2="258.0608" y2="-13.6686" gradientTransform="matrix(0.8863 -0.1197 0 1 237.6021 250.2753)">
			<stop  offset="0" style="stop-color:#C7C7C7"/>
			<stop  offset="1" style="stop-color:#CBCCCC"/>
		</linearGradient>
		<path class="st1" d="M538.2,107.4l-32.8,4.4v-8.5c0-24.3-17.6-41.7-39.1-38.8c-21.5,2.9-39.1,25.1-39.1,49.4v8.5l-32.8,4.4
			c-13.2,1.8-24,15.4-24,30.3v34.4c0,14.9,10.7,25.6,24,23.8L538.2,196c13.2-1.8,24-15.4,24-30.3v-34.4
			C562.2,116.3,551.4,105.7,538.2,107.4z"/>
	</g>
	<linearGradient id="SVGID_3_" gradientUnits="userSpaceOnUse" x1="550.6725" y1="122.5127" x2="574.325" y2="122.5127">
		<stop  offset="0" style="stop-color:#BFBFBF"/>
		<stop  offset="0.5009" style="stop-color:#B5B5B5"/>
		<stop  offset="1" style="stop-color:#A6A6A6"/>
	</linearGradient>
	<polygon class="st2" points="550.7,109.7 574.3,126 554,135.3 	"/>
	<g>
		
			<linearGradient id="SVGID_4_" gradientUnits="userSpaceOnUse" x1="258.0608" y1="687.2197" x2="258.0608" y2="-47.8394" gradientTransform="matrix(0.8863 -0.1197 0 1 237.6021 250.2753)">
			<stop  offset="0" style="stop-color:#C7C7C7"/>
			<stop  offset="0.6591" style="stop-color:#BDBDBD"/>
			<stop  offset="1" style="stop-color:#B5B5B5"/>
		</linearGradient>
		<path class="st3" d="M676.6,878.2L256,935c-33.3,4.5-60.3-22.3-60.3-59.9V276.2c0-37.6,27-71.7,60.3-76.2l420.6-56.8
			c33.3-4.5,60.3,22.3,60.3,59.9v598.9C737,839.5,709.9,873.7,676.6,878.2z"/>
	</g>
	<g>
		
			<linearGradient id="SVGID_5_" gradientUnits="userSpaceOnUse" x1="280.1279" y1="703.5001" x2="280.1279" y2="-31.5589" gradientTransform="matrix(0.8863 -0.1197 0 1 237.6021 250.2753)">
			<stop  offset="0" style="stop-color:#EDEDED"/>
			<stop  offset="0.6549" style="stop-color:#E3E3E3"/>
			<stop  offset="1" style="stop-color:#DBDBDB"/>
		</linearGradient>
		<path class="st4" d="M696.2,891.8l-420.6,56.8c-33.3,4.5-60.3-22.3-60.3-59.9V289.8c0-37.6,27-71.7,60.3-76.2l420.6-56.8
			c33.3-4.5,60.3,22.3,60.3,59.9v598.9C756.5,853.2,729.5,887.3,696.2,891.8z"/>
	</g>
	<g>
		<linearGradient id="SVGID_6_" gradientUnits="userSpaceOnUse" x1="389.7786" y1="198.1219" x2="389.7786" y2="178.1392">
			<stop  offset="0" style="stop-color:#C7C7C7"/>
			<stop  offset="1" style="stop-color:#CBCCCC"/>
		</linearGradient>
		<polygon class="st5" points="370.5,184.5 390,198.1 409.1,184.5 399.3,178.1 		"/>
	</g>
	<g>
		<linearGradient id="SVGID_7_" gradientUnits="userSpaceOnUse" x1="483.2829" y1="849.778" x2="483.2829" y2="422.7292">
			<stop  offset="0" style="stop-color:#D1D1D1"/>
			<stop  offset="0.3336" style="stop-color:#C7C7C7"/>
			<stop  offset="0.9074" style="stop-color:#ABABAB"/>
			<stop  offset="1" style="stop-color:#A6A6A6"/>
		</linearGradient>
		<path class="st6" d="M260.9,422.7c0,0,2.1,295,67.8,378.3s377.1,34.6,377.1,34.6L541.2,483l-276.2-56L260.9,422.7z"/>
	</g>
	<g>
		
			<linearGradient id="SVGID_8_" gradientUnits="userSpaceOnUse" x1="23.1738" y1="340.797" x2="536.0551" y2="340.797" gradientTransform="matrix(0.8863 -0.1197 0 1 237.6021 250.2753)">
			<stop  offset="0" style="stop-color:#F4F4F4"/>
			<stop  offset="1" style="stop-color:#F2F2F2"/>
		</linearGradient>
		<path class="st7" d="M712.7,840.5c0,0-286.7,50.7-377.4-66.6c-86.4-111.7-76.9-499.5-76.9-499.5L712.7,213V840.5z"/>
	</g>
	<g>
		<g>
			
				<linearGradient id="SVGID_9_" gradientUnits="userSpaceOnUse" x1="498.3367" y1="710.4827" x2="832.5668" y2="710.4827" gradientTransform="matrix(0.9891 -1.635850e-02 6.684836e-03 1.01 -11.3512 -17.0269)">
				<stop  offset="0" style="stop-color:#BFBFBF"/>
				<stop  offset="0.5009" style="stop-color:#B5B5B5"/>
				<stop  offset="1" style="stop-color:#A6A6A6"/>
			</linearGradient>
			<path class="st8" d="M791.7,568.4c48.3,82.3,24.6,203.3-52.7,270.3S559.7,893.3,511.5,811s-24.6-203.3,52.7-270.3
				S743.5,486.1,791.7,568.4z"/>
		</g>
		<g>
			
				<linearGradient id="SVGID_10_" gradientUnits="userSpaceOnUse" x1="722.6234" y1="899.1053" x2="838.0213" y2="899.1053" gradientTransform="matrix(0.9891 -1.635850e-02 6.684836e-03 1.01 -11.3512 -17.0269)">
				<stop  offset="0" style="stop-color:#BFBFBF"/>
				<stop  offset="0.5009" style="stop-color:#B5B5B5"/>
				<stop  offset="1" style="stop-color:#A6A6A6"/>
			</linearGradient>
			<path class="st9" d="M809.4,951.6L809.4,951.6c-14.3,12.4-33.2,10-42.1-5.1l-53.6-91.4c-8.9-15.2-4.5-37.7,9.8-50.1h0
				c14.3-12.4,33.2-10,42.1,5.1l53.6,91.4C828.1,916.7,823.7,939.3,809.4,951.6z"/>
		</g>
		<g>
			<path class="st10" d="M648.5,864.1c-42.1,0-79.2-22.1-101.8-60.6c-20.7-35.3-27.2-79.9-18.2-125.8c9-46.2,32.5-87.7,66.3-116.9
				c28.3-24.5,61.7-38,94.2-38c42.1,0,79.2,22.1,101.8,60.6c20.7,35.3,27.2,79.9,18.2,125.8c-9,46.2-32.5,87.7-66.3,116.9
				C714.4,850.6,681,864.1,648.5,864.1z"/>
			<g>
				<path class="st11" d="M689,504.7V541c17.3,0,33.4,4.3,48,12.7c15.4,8.9,28.2,22,38.1,38.9c9.2,15.6,15.2,33.5,18,53
					c2.7,19.4,2.1,39.6-1.9,60.1c-4,20.6-11.2,40.3-21.4,58.5c-10.4,18.6-23.5,34.8-38.9,48.2c-13,11.2-26.9,19.8-41.5,25.5
					c-13.5,5.3-27.3,8-40.8,8c-17.3,0-33.4-4.3-48-12.7c-15.4-8.9-28.2-22-38.1-38.9c-9.2-15.6-15.2-33.5-18-53
					c-2.7-19.4-2.1-39.6,1.9-60.1c4-20.6,11.2-40.3,21.4-58.5c10.4-18.6,23.5-34.8,38.9-48.2c13-11.2,26.9-19.8,41.5-25.5
					c13.5-5.3,27.3-8,40.8-8L689,504.7 M689,504.7c-35.7,0-73.2,13.9-106.1,42.4c-76,65.8-99.2,184.7-51.8,265.6
					c26.9,45.8,70.7,69.6,117.4,69.6c35.7,0,73.2-13.9,106.1-42.4c76-65.8,99.2-184.7,51.8-265.6C779.5,528.5,735.7,504.7,689,504.7
					L689,504.7z"/>
			</g>
		</g>
		<g>
			<path class="st11" d="M818.7,949.2L818.7,949.2c-13.4,11.6-31.3,9.4-39.6-4.8l-50.4-85.9c-8.4-14.3-4.2-35.5,9.2-47.1l0,0
				c13.4-11.6,31.3-9.4,39.6,4.8l50.4,85.9C836.3,916.4,832.1,937.6,818.7,949.2z"/>
		</g>
	</g>
	<g>
		
			<linearGradient id="SVGID_11_" gradientUnits="userSpaceOnUse" x1="53.2328" y1="504.2849" x2="272.876" y2="504.2849" gradientTransform="matrix(0.8863 -0.1197 0 1 237.6021 250.2753)">
			<stop  offset="0" style="stop-color:#D9D9D9"/>
			<stop  offset="0.8539" style="stop-color:#CECECE"/>
			<stop  offset="1" style="stop-color:#CCCCCC"/>
		</linearGradient>
		<path class="st12" d="M479.5,844.3c-58.2-9.4-105.9-26.9-137.2-67.4c-26-33.7-46-85.5-57.5-151.1c52.9,89.8,118.3,81.9,118.3,81.9
			S395.3,785.4,479.5,844.3z"/>
	</g>
	<g>
		
			<linearGradient id="SVGID_12_" gradientUnits="userSpaceOnUse" x1="48.3553" y1="498.9832" x2="272.876" y2="498.9832" gradientTransform="matrix(0.8863 -0.1197 0 1 237.6021 250.2753)">
			<stop  offset="0" style="stop-color:#F4F4F4"/>
			<stop  offset="0.5086" style="stop-color:#EAEAEA"/>
			<stop  offset="1" style="stop-color:#DBDBDB"/>
		</linearGradient>
		<path class="st13" d="M479.5,844.3c-58.2-9.4-112.8-29.9-144.1-70.4c-26-33.7-43.4-92.4-54.9-158.1
			c52.9,89.8,115.7,88.9,115.7,88.9S395.3,785.4,479.5,844.3z"/>
	</g>
	<polygon class="st14" points="489.4,70 507.7,82.8 476.3,82 	"/>
	<g>
		
			<linearGradient id="SVGID_13_" gradientUnits="userSpaceOnUse" x1="280.1279" y1="2.6119" x2="280.1279" y2="-138.5543" gradientTransform="matrix(0.8863 -0.1197 0 1 237.6021 250.2753)">
			<stop  offset="0" style="stop-color:#F4F4F4"/>
			<stop  offset="0.5086" style="stop-color:#EAEAEA"/>
			<stop  offset="1" style="stop-color:#DBDBDB"/>
		</linearGradient>
		<path class="st15" d="M557.7,121.1l-32.8,4.4V117c0-24.3-17.6-41.7-39.1-38.8c-21.5,2.9-39.1,25.1-39.1,49.4v8.5l-32.8,4.4
			c-13.2,1.8-24,15.4-24,30.3v34.4c0,14.9,10.7,25.6,24,23.8l143.7-19.4c13.2-1.8,24-15.4,24-30.3v-34.4
			C581.7,130,571,119.3,557.7,121.1z"/>
	</g>
</g>
</svg>
